<svg width="34" height="32" viewBox="0 0 34 32" fill="none" xmlns="http://www.w3.org/2000/svg">
<g clip-path="url(#clip0_221_1292)">
<path d="M30.1364 16.1023V30.8565H3.86364V16.1023" stroke="white" stroke-width="1.6" stroke-linecap="round" stroke-linejoin="round"/>
<path d="M14.6818 15.1544V30.8565" stroke="white" stroke-width="1.6" stroke-linecap="round" stroke-linejoin="round"/>
<path d="M12.3636 23.1424V23.9138" stroke="white" stroke-width="1.6" stroke-linecap="round" stroke-linejoin="round"/>
<path d="M27.8182 26.9995L26.2727 28.5423" stroke="white" stroke-width="1.6" stroke-linecap="round" stroke-linejoin="round"/>
<path d="M27.8182 23.1424L22.4091 28.5423" stroke="white" stroke-width="1.6" stroke-linecap="round" stroke-linejoin="round"/>
<path d="M1.54545 10.0284V13.114C1.54545 14.8179 2.9296 16.1997 4.63636 16.1997C6.34312 16.1997 7.72727 14.8179 7.72727 13.114C7.72727 14.8179 9.11142 16.1997 10.8182 16.1997C12.5249 16.1997 13.9091 14.8179 13.9091 13.114C13.9091 14.8179 15.2932 16.1997 17 16.1997C18.7068 16.1997 20.0909 14.8179 20.0909 13.114C20.0909 14.8179 21.4751 16.1997 23.1818 16.1997C24.8886 16.1997 26.2727 14.8179 26.2727 13.114C26.2727 14.8179 27.6569 16.1997 29.3636 16.1997C31.0704 16.1997 32.4545 14.8179 32.4545 13.114V10.0284" stroke="white" stroke-width="1.6" stroke-linecap="round" stroke-linejoin="round"/>
<path d="M32.4545 10.0284L29.3636 5.3999H17H4.63636L1.54545 10.0284" stroke="white" stroke-width="1.6" stroke-linecap="round" stroke-linejoin="round"/>
<path d="M4.63636 5.3999V0.771423H29.3636V5.3999" stroke="white" stroke-width="1.6" stroke-linecap="round" stroke-linejoin="round"/>
<path d="M13.9091 13.114V12.3426" stroke="white" stroke-width="1.6" stroke-linecap="round" stroke-linejoin="round"/>
<path d="M7.72727 13.114V12.3426" stroke="white" stroke-width="1.6" stroke-linecap="round" stroke-linejoin="round"/>
<path d="M20.0909 13.114V12.3426" stroke="white" stroke-width="1.6" stroke-linecap="round" stroke-linejoin="round"/>
<path d="M26.2727 13.114V12.3426" stroke="white" stroke-width="1.6" stroke-linecap="round" stroke-linejoin="round"/>
<path d="M1.54545 10.0284H32.4545" stroke="white" stroke-width="1.6" stroke-linecap="round" stroke-linejoin="round"/>
<path d="M0.772728 30.8565H3.86364" stroke="white" stroke-width="1.6" stroke-linecap="round" stroke-linejoin="round"/>
<path d="M30.1364 30.8565H33.2273" stroke="white" stroke-width="1.6" stroke-linecap="round" stroke-linejoin="round"/>
</g>
<defs>
<clipPath id="clip0_221_1292">
<rect width="34" height="31.6279" fill="white"/>
</clipPath>
</defs>
</svg>
