<svg width="34" height="31" viewBox="0 0 34 31" fill="none" xmlns="http://www.w3.org/2000/svg">
<g clip-path="url(#clip0_221_1271)">
<path d="M30.2446 5.65109L19.4665 16.4579L18.3679 20.4359L22.3388 19.3301L33.1168 8.52332C33.3968 8.24328 33.3035 7.69038 32.9086 7.29544L31.4724 5.85933C31.0775 5.4644 30.5246 5.37105 30.2446 5.65109Z" stroke="white" stroke-width="1.6" stroke-linejoin="round"/>
<path d="M31.5945 10.0528L28.7223 7.18054" stroke="white" stroke-width="1.6" stroke-linejoin="round"/>
<path d="M25.132 8.61671V4.30836C25.132 2.32653 23.5236 0.718079 21.5417 0.718079H4.30834C2.32651 0.718079 0.718058 2.32653 0.718058 4.30836V20.8237C0.718058 22.8055 2.32651 24.414 4.30834 24.414H6.46251V28.7223C6.46251 29.4116 7.33854 29.706 7.75502 29.1531L12.925 24.414H21.5417C23.5236 24.414 25.132 22.8055 25.132 20.8237V19.3876" stroke="white" stroke-width="1.6" stroke-miterlimit="10"/>
<path d="M10.7709 7.89862V11.4889" stroke="white" stroke-width="1.6" stroke-linejoin="round"/>
<path d="M14.3611 7.89862V11.4889" stroke="white" stroke-width="1.6" stroke-linejoin="round"/>
<path d="M16.8672 12.9466C16.1563 14.6197 14.4976 15.7973 12.566 15.7973C10.6344 15.7973 8.97571 14.6197 8.26484 12.9466" stroke="white" stroke-width="1.6" stroke-linejoin="round"/>
</g>
<defs>
<clipPath id="clip0_221_1271">
<rect width="34" height="30.1584" fill="white"/>
</clipPath>
</defs>
</svg>
